<?xml version="1.0" encoding="UTF-8" standalone="no"?>
<!-- Created with Inkscape (http://www.inkscape.org/) -->

<svg
   version="1.1"
   id="svg2"
   width="666.66669"
   height="666.66669"
   viewBox="0 0 666.66669 666.66669"
   sodipodi:docname="8563694.ai"
   xmlns:inkscape="http://www.inkscape.org/namespaces/inkscape"
   xmlns:sodipodi="http://sodipodi.sourceforge.net/DTD/sodipodi-0.dtd"
   xmlns="http://www.w3.org/2000/svg"
   xmlns:svg="http://www.w3.org/2000/svg">
  <defs
     id="defs6">
    <clipPath
       clipPathUnits="userSpaceOnUse"
       id="clipPath18">
      <path
         d="M 0,0 H 500 V 500 H 0 Z"
         id="path16" />
    </clipPath>
    <clipPath
       clipPathUnits="userSpaceOnUse"
       id="clipPath456">
      <path
         d="M 0,500 H 500 V 0 H 0 Z"
         id="path454" />
    </clipPath>
    <clipPath
       clipPathUnits="userSpaceOnUse"
       id="clipPath588">
      <path
         d="M 0,0 H 500 V 500 H 0 Z"
         id="path586" />
    </clipPath>
  </defs>
  <sodipodi:namedview
     id="namedview4"
     pagecolor="#ffffff"
     bordercolor="#000000"
     borderopacity="0.25"
     inkscape:showpageshadow="2"
     inkscape:pageopacity="0.0"
     inkscape:pagecheckerboard="0"
     inkscape:deskcolor="#d1d1d1" />
  <g
     id="g8"
     inkscape:groupmode="layer"
     inkscape:label="8563694"
     transform="matrix(1.3333333,0,0,-1.3333333,0,666.66667)">
    <path
       d="M 0,0 H 500 V 500 H 0 Z"
       style="fill:#ffffff;fill-opacity:1;fill-rule:nonzero;stroke:none"
       id="path10" />
    <g
       id="g12">
      <g
         id="g14"
         clip-path="url(#clipPath18)">
        <g
           id="g20"
           transform="translate(316.6217,269.2954)">
          <path
             d="M 0,0 C 0,0 92.16,0 90.735,1.585 90.376,7.316 87.211,12.805 82.431,15.987 77.651,19.169 71.366,19.971 65.94,18.092 62.507,27.345 52.615,33.767 42.765,33.136 32.916,32.506 23.923,24.876 21.698,15.26 16.65,17.34 10.499,16.446 6.253,13.014 2.006,9.583 -0.16,3.757 0,0"
             style="fill:#ffffff;fill-opacity:1;fill-rule:nonzero;stroke:none"
             id="path22" />
        </g>
        <g
           id="g24"
           transform="translate(316.6217,269.2954)">
          <path
             d="M 0,0 C 0,0 92.16,0 90.735,1.585 90.376,7.316 87.211,12.805 82.431,15.987 77.651,19.169 71.366,19.971 65.94,18.092 62.507,27.345 52.615,33.767 42.765,33.136 32.916,32.506 23.923,24.876 21.698,15.26 16.65,17.34 10.499,16.446 6.253,13.014 2.006,9.583 -0.16,3.757 0,0 Z"
             style="fill:none;stroke:#000000;stroke-width:2;stroke-linecap:round;stroke-linejoin:round;stroke-miterlimit:10;stroke-dasharray:none;stroke-opacity:1"
             id="path26" />
        </g>
        <g
           id="g28"
           transform="translate(190.5657,214.1544)">
          <path
             d="m 0,0 c 0,0 -65.862,0 -65.66,0.485 -0.09,3.219 1.543,6.435 4.194,8.263 2.651,1.827 6.238,2.209 9.214,0.981 -1.515,7.821 4.841,16.234 12.779,16.913 7.938,0.679 15.631,-6.531 15.467,-14.496 3.806,3.791 10.119,4.771 14.895,2.312 C -4.335,11.998 -1.466,6.29 0,0"
             style="fill:#ffffff;fill-opacity:1;fill-rule:nonzero;stroke:none"
             id="path30" />
        </g>
        <g
           id="g32"
           transform="translate(190.5657,214.1544)">
          <path
             d="m 0,0 c 0,0 -65.862,0 -65.66,0.485 -0.09,3.219 1.543,6.435 4.194,8.263 2.651,1.827 6.238,2.209 9.214,0.981 -1.515,7.821 4.841,16.234 12.779,16.913 7.938,0.679 15.631,-6.531 15.467,-14.496 3.806,3.791 10.119,4.771 14.895,2.312 C -4.335,11.998 -1.466,6.29 0,0 Z"
             style="fill:none;stroke:#000000;stroke-width:2;stroke-linecap:round;stroke-linejoin:round;stroke-miterlimit:10;stroke-dasharray:none;stroke-opacity:1"
             id="path34" />
        </g>
        <g
           id="g36"
           transform="translate(-41,413.0758)">
          <path
             d="m 0,0 c 0,0 118.268,0 119.586,-0.818 2.147,4.239 1.824,9.78 -0.797,13.701 -2.622,3.921 -7.413,6.028 -11.847,5.211 3.019,10.662 -1.85,23.257 -11.019,28.504 C 86.754,51.846 74.284,49.174 67.7,40.552 65.354,42.72 61.63,42.944 60.115,41.04 61.372,54.147 51.44,66.088 39.932,70.712 28.423,75.337 15.706,74.354 3.454,73.306 2.13,54.716 0.805,36.126 0,0"
             style="fill:#ffffff;fill-opacity:1;fill-rule:nonzero;stroke:none"
             id="path38" />
        </g>
        <g
           id="g40"
           transform="translate(-41,413.0758)">
          <path
             d="m 0,0 c 0,0 118.268,0 119.586,-0.818 2.147,4.239 1.824,9.78 -0.797,13.701 -2.622,3.921 -7.413,6.028 -11.847,5.211 3.019,10.662 -1.85,23.257 -11.019,28.504 C 86.754,51.846 74.284,49.174 67.7,40.552 65.354,42.72 61.63,42.944 60.115,41.04 61.372,54.147 51.44,66.088 39.932,70.712 28.423,75.337 15.706,74.354 3.454,73.306 2.13,54.716 0.805,36.126 0,0 Z"
             style="fill:none;stroke:#000000;stroke-width:2;stroke-linecap:round;stroke-linejoin:round;stroke-miterlimit:10;stroke-dasharray:none;stroke-opacity:1"
             id="path42" />
        </g>
        <g
           id="g44"
           transform="translate(19.6736,454.6157)">
          <path
             d="m 0,0 c -4.387,-2.635 -6.745,-8.255 -5.553,-13.232 -2.671,1.381 -6.35,0.248 -7.781,-2.396 -1.679,2.9 -5.073,4.715 -8.417,4.503 -3.344,-0.213 -6.481,-2.443 -7.779,-5.532"
             style="fill:none;stroke:#000000;stroke-width:2;stroke-linecap:round;stroke-linejoin:round;stroke-miterlimit:10;stroke-dasharray:none;stroke-opacity:1"
             id="path46" />
        </g>
        <g
           id="g48"
           transform="translate(66.7429,431.2547)">
          <path
             d="m 0,0 c -3.54,-0.52 -6.72,-3.032 -8.045,-6.356 -1.477,1.349 -3.973,1.384 -5.486,0.077 -0.908,4.651 -4.981,8.508 -9.675,9.16 -4.694,0.652 -9.664,-1.948 -11.806,-6.175"
             style="fill:none;stroke:#000000;stroke-width:2;stroke-linecap:round;stroke-linejoin:round;stroke-miterlimit:10;stroke-dasharray:none;stroke-opacity:1"
             id="path50" />
        </g>
        <g
           id="g52"
           transform="translate(370.0731,444.31)">
          <path
             d="m 0,0 c 0,0 -131.896,0 -135.212,0.007 1.396,9.368 10.306,17.016 19.778,16.978 -0.796,10.662 6.471,21.399 16.666,24.623 10.194,3.223 22.313,-1.384 27.792,-10.565 5.066,6.665 15.655,8.238 22.439,3.332 7.386,9.182 21.395,12.262 31.952,7.025 C -6.028,36.163 -0.005,23.146 -2.847,11.709 2.622,11.712 5.658,3.364 0,0"
             style="fill:#ffffff;fill-opacity:1;fill-rule:nonzero;stroke:none"
             id="path54" />
        </g>
        <g
           id="g56"
           transform="translate(370.0731,444.31)">
          <path
             d="m 0,0 c 0,0 -131.896,0 -135.212,0.007 1.396,9.368 10.306,17.016 19.778,16.978 -0.796,10.662 6.471,21.399 16.666,24.623 10.194,3.223 22.313,-1.384 27.792,-10.565 5.066,6.665 15.655,8.238 22.439,3.332 7.386,9.182 21.395,12.262 31.952,7.025 C -6.028,36.163 -0.005,23.146 -2.847,11.709 2.622,11.712 5.658,3.364 0,0 Z"
             style="fill:none;stroke:#000000;stroke-width:2;stroke-linecap:round;stroke-linejoin:round;stroke-miterlimit:10;stroke-dasharray:none;stroke-opacity:1"
             id="path58" />
        </g>
        <g
           id="g60"
           transform="translate(254.5442,461.4642)">
          <path
             d="m 0,0 c 4.142,0.608 8.554,-1.418 10.793,-4.956 1.444,1.944 4.743,2.068 6.329,0.238 0.652,3.227 3.196,5.998 6.355,6.922 3.16,0.924 6.796,-0.038 9.084,-2.405"
             style="fill:none;stroke:#000000;stroke-width:2;stroke-linecap:round;stroke-linejoin:round;stroke-miterlimit:10;stroke-dasharray:none;stroke-opacity:1"
             id="path62" />
        </g>
        <g
           id="g64"
           transform="translate(299.923,476.6859)">
          <path
             d="M 0,0 C -2.779,-3.014 -3.642,-7.655 -2.135,-11.467"
             style="fill:none;stroke:#000000;stroke-width:2;stroke-linecap:round;stroke-linejoin:round;stroke-miterlimit:10;stroke-dasharray:none;stroke-opacity:1"
             id="path66" />
        </g>
        <g
           id="g68"
           transform="translate(321.4235,478.4667)">
          <path
             d="m 0,0 c 2.66,-1.497 4.499,-4.363 4.751,-7.405 1.992,1.678 5.572,0.629 6.344,-1.859 0.382,1.479 1.862,2.51 3.382,2.664 1.52,0.154 3.039,-0.444 4.28,-1.335 3.329,-2.387 4.826,-7.042 3.513,-10.922"
             style="fill:none;stroke:#000000;stroke-width:2;stroke-linecap:round;stroke-linejoin:round;stroke-miterlimit:10;stroke-dasharray:none;stroke-opacity:1"
             id="path70" />
        </g>
        <g
           id="g72"
           transform="translate(515.9639,368.6679)">
          <path
             d="m 0,0 c 0,0 -93.231,0 -93.38,0.456 3.768,5.73 10.872,9.078 17.688,8.337 -3.37,9.107 0.084,20.273 8.008,25.886 7.923,5.613 19.603,5.167 27.076,-1.034 2.852,4.739 9.227,7.007 14.432,5.136 -1.112,5.051 0.732,10.642 4.629,14.041 3.897,3.4 9.687,4.467 14.54,2.68 C -8.392,38.072 -8.031,20.504 0,0"
             style="fill:#ffffff;fill-opacity:1;fill-rule:nonzero;stroke:none"
             id="path74" />
        </g>
        <g
           id="g76"
           transform="translate(515.9639,368.6679)">
          <path
             d="m 0,0 c 0,0 -93.231,0 -93.38,0.456 3.768,5.73 10.872,9.078 17.688,8.337 -3.37,9.107 0.084,20.273 8.008,25.886 7.923,5.613 19.603,5.167 27.076,-1.034 2.852,4.739 9.227,7.007 14.432,5.136 -1.112,5.051 0.732,10.642 4.629,14.041 3.897,3.4 9.687,4.467 14.54,2.68 C -8.392,38.072 -8.031,20.504 0,0 Z"
             style="fill:none;stroke:#000000;stroke-width:2;stroke-linecap:round;stroke-linejoin:round;stroke-miterlimit:10;stroke-dasharray:none;stroke-opacity:1"
             id="path78" />
        </g>
        <g
           id="g80"
           transform="translate(474.4243,402.1754)">
          <path
             d="m 0,0 c 4.63,-1.6 7.342,-7.328 5.645,-11.924 3.573,-0.082 7.02,-2.263 8.623,-5.457"
             style="fill:none;stroke:#000000;stroke-width:2;stroke-linecap:round;stroke-linejoin:round;stroke-miterlimit:10;stroke-dasharray:none;stroke-opacity:1"
             id="path82" />
        </g>
        <g
           id="g84"
           transform="translate(73.9987,562.9033)">
          <path
             d="m 0,0 c 134.212,-134.993 297.764,-235.691 474.412,-292.092 0.122,4.361 -0.237,5.497 -0.115,9.857 C 330.848,-236.434 155.326,-153.703 36.094,-8.876 23.356,-6.712 18.691,-4.655 0,0"
             style="fill:#ffffff;fill-opacity:1;fill-rule:nonzero;stroke:none"
             id="path86" />
        </g>
        <g
           id="g88"
           transform="translate(73.9987,562.9033)">
          <path
             d="m 0,0 c 134.212,-134.993 297.764,-235.691 474.412,-292.092 0.122,4.361 -0.237,5.497 -0.115,9.857 C 330.848,-236.434 155.326,-153.703 36.094,-8.876 23.356,-6.712 18.691,-4.655 0,0 Z"
             style="fill:none;stroke:#000000;stroke-width:1;stroke-linecap:round;stroke-linejoin:round;stroke-miterlimit:10;stroke-dasharray:none;stroke-opacity:1"
             id="path90" />
        </g>
        <g
           id="g92"
           transform="translate(-63.3878,374.9581)">
          <path
             d="m 0,0 c 186.7,-105.803 399.374,-170.874 616.902,-188.75 -0.873,4.392 -1.553,5.45 -2.425,9.841 C 437.831,-164.393 215.483,-119.918 43.832,-1.002 28.588,-1.618 22.711,-0.578 0,0"
             style="fill:#ffffff;fill-opacity:1;fill-rule:nonzero;stroke:none"
             id="path94" />
        </g>
        <g
           id="g96"
           transform="translate(-63.3878,374.9581)">
          <path
             d="m 0,0 c 186.7,-105.803 399.374,-170.874 616.902,-188.75 -0.873,4.392 -1.553,5.45 -2.425,9.841 C 437.831,-164.393 215.483,-119.918 43.832,-1.002 28.588,-1.618 22.711,-0.578 0,0 Z"
             style="fill:none;stroke:#000000;stroke-width:1;stroke-linecap:round;stroke-linejoin:round;stroke-miterlimit:10;stroke-dasharray:none;stroke-opacity:1"
             id="path98" />
        </g>
        <g
           id="g100"
           transform="translate(-27.9699,292.3354)">
          <path
             d="m 0,0 c 14.161,7.944 33.16,6.161 45.595,-4.279 12.436,-10.44 17.482,-28.843 12.11,-44.166 6.538,1.445 13.776,-3.445 14.877,-10.049 10.332,7.093 25.494,6.063 34.772,-2.362 9.278,-8.426 11.76,-23.418 5.692,-34.384 6.161,1.707 13.318,-1.585 16.031,-7.374 11.075,9.143 27.637,11.009 40.47,4.562 12.833,-6.446 21.222,-20.848 20.499,-35.191 7.154,2.694 16.103,-1.199 22.469,-7.17 8.261,12.001 22.43,19.717 36.993,20.146 14.564,0.428 29.162,-6.44 38.115,-17.935 5.883,3.586 13.405,4.351 19.889,2.021 0.868,17.067 14.742,32.587 31.605,35.355 16.864,2.769 34.972,-7.5 41.251,-23.394 6.048,5.972 16.718,6.397 23.221,0.924 -1.63,11.382 10.716,22.319 21.818,19.329 -10.412,7.724 -6.344,25.674 4.41,32.915 10.753,7.24 24.754,6.831 37.68,5.836 -9.301,9.754 -12.131,25.152 -6.907,37.575 5.224,12.425 18.207,21.173 31.683,21.35 -2.198,7.288 4.651,15.703 12.233,15.031 -5.089,8.487 -4.379,20.076 1.708,27.879 6.087,7.803 17.155,11.312 31.252,0.051 6.316,-78.355 7.168,-157.15 2.547,-235.623 C 361.351,-199.624 182.712,-206.571 4.537,-219.778 2.563,-154.137 0.589,-88.496 0,0"
             style="fill:#ffffff;fill-opacity:1;fill-rule:nonzero;stroke:none"
             id="path102" />
        </g>
        <g
           id="g104"
           transform="translate(-27.9699,292.3354)">
          <path
             d="m 0,0 c 14.161,7.944 33.16,6.161 45.595,-4.279 12.436,-10.44 17.482,-28.843 12.11,-44.166 6.538,1.445 13.776,-3.445 14.877,-10.049 10.332,7.093 25.494,6.063 34.772,-2.362 9.278,-8.426 11.76,-23.418 5.692,-34.384 6.161,1.707 13.318,-1.585 16.031,-7.374 11.075,9.143 27.637,11.009 40.47,4.562 12.833,-6.446 21.222,-20.848 20.499,-35.191 7.154,2.694 16.103,-1.199 22.469,-7.17 8.261,12.001 22.43,19.717 36.993,20.146 14.564,0.428 29.162,-6.44 38.115,-17.935 5.883,3.586 13.405,4.351 19.889,2.021 0.868,17.067 14.742,32.587 31.605,35.355 16.864,2.769 34.972,-7.5 41.251,-23.394 6.048,5.972 16.718,6.397 23.221,0.924 -1.63,11.382 10.716,22.319 21.818,19.329 -10.412,7.724 -6.344,25.674 4.41,32.915 10.753,7.24 24.754,6.831 37.68,5.836 -9.301,9.754 -12.131,25.152 -6.907,37.575 5.224,12.425 18.207,21.173 31.683,21.35 -2.198,7.288 4.651,15.703 12.233,15.031 -5.089,8.487 -4.379,20.076 1.708,27.879 6.087,7.803 17.155,11.312 31.252,0.051 6.316,-78.355 7.168,-157.15 2.547,-235.623 C 361.351,-199.624 182.712,-206.571 4.537,-219.778 2.563,-154.137 0.589,-88.496 0,0 Z"
             style="fill:none;stroke:#000000;stroke-width:2;stroke-linecap:round;stroke-linejoin:round;stroke-miterlimit:10;stroke-dasharray:none;stroke-opacity:1"
             id="path106" />
        </g>
        <g
           id="g108"
           transform="translate(102.4435,190.8326)">
          <path
             d="m 0,0 c -6.241,-5.353 -10.027,-13.461 -10.126,-21.683 -2.781,0.825 -6.061,-0.888 -6.974,-3.641 -5.554,4.027 -13.496,4.443 -19.441,1.016 -5.944,-3.426 -9.566,-10.506 -8.866,-17.331 -2.831,1.761 -6.922,1.093 -9.046,-1.478"
             style="fill:none;stroke:#000000;stroke-width:2;stroke-linecap:round;stroke-linejoin:round;stroke-miterlimit:10;stroke-dasharray:none;stroke-opacity:1"
             id="path110" />
        </g>
        <g
           id="g112"
           transform="translate(45.8668,234.1622)">
          <path
             d="m 0,0 c -7.175,-2.852 -12.362,-10.139 -12.707,-17.853 -3.788,0.641 -7.847,-1.978 -8.825,-5.694 -2.776,2.245 -6.734,2.934 -10.105,1.757 -3.371,-1.177 -6.041,-4.178 -6.817,-7.663"
             style="fill:none;stroke:#000000;stroke-width:2;stroke-linecap:round;stroke-linejoin:round;stroke-miterlimit:10;stroke-dasharray:none;stroke-opacity:1"
             id="path114" />
        </g>
        <g
           id="g116"
           transform="translate(183.2023,153.0786)">
          <path
             d="m 0,0 c 4.035,-3.818 6.281,-9.453 5.977,-15 3.186,0.334 6.449,-1.882 7.314,-4.965 1.548,2.732 4.889,4.323 7.986,3.803 3.097,-0.52 5.735,-3.115 6.306,-6.203"
             style="fill:none;stroke:#000000;stroke-width:2;stroke-linecap:round;stroke-linejoin:round;stroke-miterlimit:10;stroke-dasharray:none;stroke-opacity:1"
             id="path118" />
        </g>
        <g
           id="g120"
           transform="translate(397.3835,187.9371)">
          <path
             d="m 0,0 c 5.012,-2.419 9.076,-6.742 11.182,-11.894 2.39,1.981 6.096,2.174 8.68,0.452 1.317,6.43 9.282,9.682 15.645,8.07 4.783,-1.212 8.98,-4.57 11.211,-8.971 2.232,-4.402 2.46,-9.771 0.611,-14.346 4.19,1.704 9.558,-0.615 11.19,-4.834"
             style="fill:none;stroke:#000000;stroke-width:2;stroke-linecap:round;stroke-linejoin:round;stroke-miterlimit:10;stroke-dasharray:none;stroke-opacity:1"
             id="path122" />
        </g>
        <g
           id="g124"
           transform="translate(439.3513,226.5119)">
          <path
             d="m 0,0 c 4.889,-3.486 10.573,-5.852 16.492,-6.865 -2.629,-1.791 -3.508,-5.718 -1.894,-8.459 -4.206,3.301 -10.269,4.049 -15.15,1.867 -4.882,-2.181 -8.369,-7.196 -8.715,-12.532"
             style="fill:none;stroke:#000000;stroke-width:2;stroke-linecap:round;stroke-linejoin:round;stroke-miterlimit:10;stroke-dasharray:none;stroke-opacity:1"
             id="path126" />
        </g>
        <g
           id="g128"
           transform="translate(-27.137,104.4355)">
          <path
             d="m 0,0 h 42.357 c 0,0 128.596,-2.407 192.894,-3.61 -2.137,6.674 -4.941,10.373 -7.745,14.073 -9.27,2.344 -18.728,3.467 -28.153,4.823 -3.604,3.806 -6.39,6.052 -9.175,8.299 -6.29,-3.056 -10.423,-5.571 -14.557,-8.087 -1.617,6.11 -2.426,12.489 -3.234,18.869 -4.885,4.572 -8.264,7.86 -11.052,11.591 -7.818,-2.426 -13.209,-5.661 -18.6,-8.895 -1.203,-9.446 -3,-18.342 -4.797,-27.237 -4.638,0.64 -7.603,0.999 -10.568,1.359 -1.078,3.863 -1.617,6.919 -2.156,9.974 -6.373,1.3 -10.597,2.012 -14.822,2.724 C 94.817,21.078 81.769,17.662 68.722,14.245 60.728,18.6 55.514,21.92 50.3,25.24 47.009,38.373 45.013,51.427 43.729,64.55 38.2,66.367 33.439,68.527 28.678,70.686 17.31,62.836 -0.082,50.201 -0.082,50.201 c 0,0 0,-50.697 0.082,-50.201"
             style="fill:#ffffff;fill-opacity:1;fill-rule:nonzero;stroke:none"
             id="path130" />
        </g>
        <g
           id="g132"
           transform="translate(-27.137,104.4355)">
          <path
             d="m 0,0 h 42.357 c 0,0 128.596,-2.407 192.894,-3.61 -2.137,6.674 -4.941,10.373 -7.745,14.073 -9.27,2.344 -18.728,3.467 -28.153,4.823 -3.604,3.806 -6.39,6.052 -9.175,8.299 -6.29,-3.056 -10.423,-5.571 -14.557,-8.087 -1.617,6.11 -2.426,12.489 -3.234,18.869 -4.885,4.572 -8.264,7.86 -11.052,11.591 -7.818,-2.426 -13.209,-5.661 -18.6,-8.895 -1.203,-9.446 -3,-18.342 -4.797,-27.237 -4.638,0.64 -7.603,0.999 -10.568,1.359 -1.078,3.863 -1.617,6.919 -2.156,9.974 -6.373,1.3 -10.597,2.012 -14.822,2.724 C 94.817,21.078 81.769,17.662 68.722,14.245 60.728,18.6 55.514,21.92 50.3,25.24 47.009,38.373 45.013,51.427 43.729,64.55 38.2,66.367 33.439,68.527 28.678,70.686 17.31,62.836 -0.082,50.201 -0.082,50.201 c 0,0 0,-50.697 0.082,-50.201 z"
             style="fill:none;stroke:#000000;stroke-width:2;stroke-linecap:round;stroke-linejoin:round;stroke-miterlimit:10;stroke-dasharray:none;stroke-opacity:1"
             id="path134" />
        </g>
        <g
           id="g136"
           transform="translate(25.5792,128.4026)">
          <path
             d="m 0,0 c -6.45,2.549 -12.901,5.099 -19.76,6.328 -1.544,-4.576 -3.089,-9.151 -4.634,-13.727"
             style="fill:none;stroke:#000000;stroke-width:1;stroke-linecap:round;stroke-linejoin:round;stroke-miterlimit:10;stroke-dasharray:none;stroke-opacity:1"
             id="path138" />
        </g>
        <g
           id="g140"
           transform="translate(1.3742,174.5336)">
          <path
             d="m 0,0 c 1.887,-2.517 3.775,-5.033 5.597,-8.755 0.448,-6.411 0.896,-12.822 1.344,-19.232"
             style="fill:none;stroke:#000000;stroke-width:1;stroke-linecap:round;stroke-linejoin:round;stroke-miterlimit:10;stroke-dasharray:none;stroke-opacity:1"
             id="path142" />
        </g>
        <g
           id="g144"
           transform="translate(11.4422,160.4608)">
          <path
             d="M 0,0 C 0.209,-4.234 0.419,-8.467 0.628,-12.701"
             style="fill:none;stroke:#000000;stroke-width:1;stroke-linecap:round;stroke-linejoin:round;stroke-miterlimit:10;stroke-dasharray:none;stroke-opacity:1"
             id="path146" />
        </g>
        <g
           id="g148"
           transform="translate(7.7234,128.891)">
          <path
             d="M 0,0 C -0.744,-4.061 -1.487,-8.122 -2.231,-12.183"
             style="fill:none;stroke:#000000;stroke-width:1;stroke-linecap:round;stroke-linejoin:round;stroke-miterlimit:10;stroke-dasharray:none;stroke-opacity:1"
             id="path150" />
        </g>
        <g
           id="g152"
           transform="translate(9.2677,121.5126)">
          <path
             d="M 0,0 C -0.114,-2.059 -0.229,-4.118 -0.343,-6.177"
             style="fill:none;stroke:#000000;stroke-width:1;stroke-linecap:round;stroke-linejoin:round;stroke-miterlimit:10;stroke-dasharray:none;stroke-opacity:1"
             id="path154" />
        </g>
        <g
           id="g156"
           transform="translate(41.5266,118.2524)">
          <path
             d="m 0,0 c 2.174,-1.258 4.347,-2.517 6.522,-4.318 6.286,0.38 12.572,0.759 19.045,0.715 0.972,-1.316 1.945,-2.631 2.917,-3.947"
             style="fill:none;stroke:#000000;stroke-width:1;stroke-linecap:round;stroke-linejoin:round;stroke-miterlimit:10;stroke-dasharray:none;stroke-opacity:1"
             id="path158" />
        </g>
        <g
           id="g160"
           transform="translate(83.3946,127.6898)">
          <path
             d="m 0,0 c 2.538,-2.536 5.512,-4.635 9.609,-7.207 0.343,-2.745 0.686,-5.491 1.03,-8.236"
             style="fill:none;stroke:#000000;stroke-width:1;stroke-linecap:round;stroke-linejoin:round;stroke-miterlimit:10;stroke-dasharray:none;stroke-opacity:1"
             id="path162" />
        </g>
        <g
           id="g164"
           transform="translate(89.5719,118.424)">
          <path
             d="M 0,0 C 0.4,-2.288 0.801,-4.576 1.201,-6.864"
             style="fill:none;stroke:#000000;stroke-width:1;stroke-linecap:round;stroke-linejoin:round;stroke-miterlimit:10;stroke-dasharray:none;stroke-opacity:1"
             id="path166" />
        </g>
        <g
           id="g168"
           transform="translate(134.7613,149.3354)">
          <path
             d="m 0,0 c -3.73,-2.774 -7.461,-5.547 -10.913,-8.479 -1.063,-6.945 -2.126,-13.89 -3.189,-20.836"
             style="fill:none;stroke:#000000;stroke-width:1;stroke-linecap:round;stroke-linejoin:round;stroke-miterlimit:10;stroke-dasharray:none;stroke-opacity:1"
             id="path170" />
        </g>
        <g
           id="g172"
           transform="translate(119.8537,130.8928)">
          <path
             d="M 0,0 C -0.652,-4.441 -1.304,-8.882 -1.956,-13.323"
             style="fill:none;stroke:#000000;stroke-width:1;stroke-linecap:round;stroke-linejoin:round;stroke-miterlimit:10;stroke-dasharray:none;stroke-opacity:1"
             id="path174" />
        </g>
        <g
           id="g176"
           transform="translate(110.4873,113.8219)">
          <path
             d="M 0,0 C 4.097,-0.47 8.194,-0.941 12.292,-1.411"
             style="fill:none;stroke:#000000;stroke-width:1;stroke-linecap:round;stroke-linejoin:round;stroke-miterlimit:10;stroke-dasharray:none;stroke-opacity:1"
             id="path178" />
        </g>
        <g
           id="g180"
           transform="translate(137.7436,137.5085)">
          <path
             d="M 0,0 C 0.833,-7.162 1.667,-14.324 2.5,-21.486"
             style="fill:none;stroke:#000000;stroke-width:1;stroke-linecap:round;stroke-linejoin:round;stroke-miterlimit:10;stroke-dasharray:none;stroke-opacity:1"
             id="path182" />
        </g>
        <g
           id="g184"
           transform="translate(141.4076,127.7955)">
          <path
             d="M 0,0 C 0.384,-4.054 0.768,-8.108 1.152,-12.162"
             style="fill:none;stroke:#000000;stroke-width:1;stroke-linecap:round;stroke-linejoin:round;stroke-miterlimit:10;stroke-dasharray:none;stroke-opacity:1"
             id="path186" />
        </g>
        <g
           id="g188"
           transform="translate(149.5932,120.528)">
          <path
             d="M 0,0 C -3.229,-2.272 -6.458,-4.545 -9.688,-6.817"
             style="fill:none;stroke:#000000;stroke-width:1;stroke-linecap:round;stroke-linejoin:round;stroke-miterlimit:10;stroke-dasharray:none;stroke-opacity:1"
             id="path190" />
        </g>
        <g
           id="g192"
           transform="translate(157.9409,121.0663)">
          <path
             d="M 0,0 C -5.434,-3.858 -10.868,-7.717 -16.302,-11.575"
             style="fill:none;stroke:#000000;stroke-width:1;stroke-linecap:round;stroke-linejoin:round;stroke-miterlimit:10;stroke-dasharray:none;stroke-opacity:1"
             id="path194" />
        </g>
        <g
           id="g196"
           transform="translate(151.1617,113.8648)">
          <path
             d="M 0,0 C -0.737,-0.69 -1.474,-1.379 -2.211,-2.069"
             style="fill:none;stroke:#000000;stroke-width:1;stroke-linecap:round;stroke-linejoin:round;stroke-miterlimit:10;stroke-dasharray:none;stroke-opacity:1"
             id="path198" />
        </g>
        <g
           id="g200"
           transform="translate(174.8364,116.382)">
          <path
             d="m 0,0 c 3.163,-0.522 6.326,-1.044 9.605,-1.842 1.497,-1.738 2.993,-3.475 4.489,-5.213"
             style="fill:none;stroke:#000000;stroke-width:1;stroke-linecap:round;stroke-linejoin:round;stroke-miterlimit:10;stroke-dasharray:none;stroke-opacity:1"
             id="path202" />
        </g>
        <g
           id="g204"
           transform="translate(189.3258,112.7235)">
          <path
             d="M 0,0 C 0.614,-1.296 1.524,-2.451 2.639,-3.353"
             style="fill:none;stroke:#000000;stroke-width:1;stroke-linecap:round;stroke-linejoin:round;stroke-miterlimit:10;stroke-dasharray:none;stroke-opacity:1"
             id="path206" />
        </g>
        <g
           id="g208"
           transform="translate(280.4703,104.9515)">
          <path
             d="m 0,0 c 13.354,4.28 27.119,7.279 41.837,8.461 1.598,4.084 3.196,8.168 4.443,12.642 3.44,2.343 6.879,4.685 9.407,6.801 0.178,-4.35 0.355,-8.701 0.799,-13.317 3.818,-1.155 7.636,-2.309 11.453,-4.262 2.042,0.888 4.084,1.776 6.963,3.191 0.987,6.657 1.973,13.314 3.693,20.778 3.729,3.019 7.458,6.037 11.451,9.325 1.687,-2.841 3.374,-5.682 4.952,-9.329 0.254,-4.174 0.508,-8.347 0.833,-12.163 2.742,2.497 5.485,4.993 8.935,8.157 1.778,7.191 3.555,14.382 6.056,23.722 2.574,1.421 5.149,2.841 8.818,2.505 2.932,-0.79 5.865,-1.58 9.791,-4.114 1.914,-5.868 4.38,-11.556 7.759,-18.9 4.795,-1.243 9.589,-2.486 14.916,-4.528 0.799,4.706 1.598,9.411 1.598,13.318 7.914,0.422 15.784,1.674 23.737,1.336 1.065,-7.191 2.131,-14.382 2.898,-22.91 3.995,-0.444 7.99,-0.888 11.306,-1.733 5.532,15.875 9.074,32.441 9.956,48.699 5.67,2.953 11.34,5.906 18.69,9.233 1.776,0.178 3.552,0.356 6.058,0.531 -0.27,-27.239 -0.54,-54.479 -0.81,-81.719 -35.517,-0.18 -71.03,-1.356 -106.481,-3.526 C 80.488,-10.163 40.413,-13.486 0,0"
             style="fill:#ffffff;fill-opacity:1;fill-rule:nonzero;stroke:none"
             id="path210" />
        </g>
        <g
           id="g212"
           transform="translate(280.4703,104.9515)">
          <path
             d="m 0,0 c 13.354,4.28 27.119,7.279 41.837,8.461 1.598,4.084 3.196,8.168 4.443,12.642 3.44,2.343 6.879,4.685 9.407,6.801 0.178,-4.35 0.355,-8.701 0.799,-13.317 3.818,-1.155 7.636,-2.309 11.453,-4.262 2.042,0.888 4.084,1.776 6.963,3.191 0.987,6.657 1.973,13.314 3.693,20.778 3.729,3.019 7.458,6.037 11.451,9.325 1.687,-2.841 3.374,-5.682 4.952,-9.329 0.254,-4.174 0.508,-8.347 0.833,-12.163 2.742,2.497 5.485,4.993 8.935,8.157 1.778,7.191 3.555,14.382 6.056,23.722 2.574,1.421 5.149,2.841 8.818,2.505 2.932,-0.79 5.865,-1.58 9.791,-4.114 1.914,-5.868 4.38,-11.556 7.759,-18.9 4.795,-1.243 9.589,-2.486 14.916,-4.528 0.799,4.706 1.598,9.411 1.598,13.318 7.914,0.422 15.784,1.674 23.737,1.336 1.065,-7.191 2.131,-14.382 2.898,-22.91 3.995,-0.444 7.99,-0.888 11.306,-1.733 5.532,15.875 9.074,32.441 9.956,48.699 5.67,2.953 11.34,5.906 18.69,9.233 1.776,0.178 3.552,0.356 6.058,0.531 -0.27,-27.239 -0.54,-54.479 -0.81,-81.719 -35.517,-0.18 -71.03,-1.356 -106.481,-3.526 C 80.488,-10.163 40.413,-13.486 0,0 Z"
             style="fill:none;stroke:#000000;stroke-width:2;stroke-linecap:round;stroke-linejoin:round;stroke-miterlimit:10;stroke-dasharray:none;stroke-opacity:1"
             id="path214" />
        </g>
        <g
           id="g216"
           transform="translate(497.3721,175.4241)">
          <path
             d="m 0,0 c -2.701,-1.512 -5.401,-3.024 -8.423,-4.975 -1.374,-10.753 -2.749,-21.505 -4.123,-32.257"
             style="fill:none;stroke:#000000;stroke-width:1;stroke-linecap:round;stroke-linejoin:round;stroke-miterlimit:10;stroke-dasharray:none;stroke-opacity:1"
             id="path218" />
        </g>
        <g
           id="g220"
           transform="translate(483.5346,147.1064)">
          <path
             d="M 0,0 C -1.242,-6.428 -2.485,-12.855 -3.727,-19.282"
             style="fill:none;stroke:#000000;stroke-width:1;stroke-linecap:round;stroke-linejoin:round;stroke-miterlimit:10;stroke-dasharray:none;stroke-opacity:1"
             id="path222" />
        </g>
        <g
           id="g224"
           transform="translate(486.9316,107.5715)">
          <path
             d="M 0,0 C 1.797,8.423 3.593,16.846 5.39,25.269"
             style="fill:none;stroke:#000000;stroke-width:1;stroke-linecap:round;stroke-linejoin:round;stroke-miterlimit:10;stroke-dasharray:none;stroke-opacity:1"
             id="path226" />
        </g>
        <g
           id="g228"
           transform="translate(432.2309,133.5305)">
          <path
             d="m 0,0 c 3.408,-1.12 6.815,-2.24 10.543,-3.439 1.513,-4.645 3.027,-9.289 4.541,-13.934"
             style="fill:none;stroke:#000000;stroke-width:1;stroke-linecap:round;stroke-linejoin:round;stroke-miterlimit:10;stroke-dasharray:none;stroke-opacity:1"
             id="path230" />
        </g>
        <g
           id="g232"
           transform="translate(441.1441,124.9024)">
          <path
             d="M 0,0 C 1.029,-3.726 2.057,-7.452 3.086,-11.179"
             style="fill:none;stroke:#000000;stroke-width:1;stroke-linecap:round;stroke-linejoin:round;stroke-miterlimit:10;stroke-dasharray:none;stroke-opacity:1"
             id="path234" />
        </g>
        <g
           id="g236"
           transform="translate(460.2489,126.3564)">
          <path
             d="M 0,0 C 0.108,-3.511 0.216,-7.022 0.324,-10.532"
             style="fill:none;stroke:#000000;stroke-width:1;stroke-linecap:round;stroke-linejoin:round;stroke-miterlimit:10;stroke-dasharray:none;stroke-opacity:1"
             id="path238" />
        </g>
        <g
           id="g240"
           transform="translate(453.0504,139.797)">
          <path
             d="M 0,0 C 0.684,-5.512 1.368,-11.023 2.052,-16.535"
             style="fill:none;stroke:#000000;stroke-width:1;stroke-linecap:round;stroke-linejoin:round;stroke-miterlimit:10;stroke-dasharray:none;stroke-opacity:1"
             id="path242" />
        </g>
        <g
           id="g244"
           transform="translate(399.8088,160.8704)">
          <path
             d="m 0,0 c -1.08,-1.08 -2.16,-2.16 -3.969,-4.209 -0.364,-7.887 -0.728,-15.773 -1.092,-23.66"
             style="fill:none;stroke:#000000;stroke-width:1;stroke-linecap:round;stroke-linejoin:round;stroke-miterlimit:10;stroke-dasharray:none;stroke-opacity:1"
             id="path246" />
        </g>
        <g
           id="g248"
           transform="translate(392.6794,143.2083)">
          <path
             d="M 0,0 C -0.27,-3.619 -0.54,-7.238 -0.81,-10.857"
             style="fill:none;stroke:#000000;stroke-width:1;stroke-linecap:round;stroke-linejoin:round;stroke-miterlimit:10;stroke-dasharray:none;stroke-opacity:1"
             id="path250" />
        </g>
        <g
           id="g252"
           transform="translate(403.7062,134.4386)">
          <path
             d="m 0,0 c -5.359,-2.295 -10.718,-4.589 -16.266,-7.428 -0.54,-5.132 -1.08,-10.263 -1.62,-15.394"
             style="fill:none;stroke:#000000;stroke-width:1;stroke-linecap:round;stroke-linejoin:round;stroke-miterlimit:10;stroke-dasharray:none;stroke-opacity:1"
             id="path254" />
        </g>
        <g
           id="g256"
           transform="translate(390.7112,122.631)">
          <path
             d="M 0,0 C -0.221,-3.564 -0.442,-7.129 -0.662,-10.694"
             style="fill:none;stroke:#000000;stroke-width:1;stroke-linecap:round;stroke-linejoin:round;stroke-miterlimit:10;stroke-dasharray:none;stroke-opacity:1"
             id="path258" />
        </g>
        <g
           id="g260"
           transform="translate(393.4894,120.199)">
          <path
             d="M 0,0 C -0.162,-1.945 -0.324,-3.889 -0.486,-5.833"
             style="fill:none;stroke:#000000;stroke-width:1;stroke-linecap:round;stroke-linejoin:round;stroke-miterlimit:10;stroke-dasharray:none;stroke-opacity:1"
             id="path262" />
        </g>
        <g
           id="g264"
           transform="translate(425.3227,124.8823)">
          <path
             d="M 0,0 C 0.792,-4.432 1.584,-8.865 2.376,-13.297"
             style="fill:none;stroke:#000000;stroke-width:1;stroke-linecap:round;stroke-linejoin:round;stroke-miterlimit:10;stroke-dasharray:none;stroke-opacity:1"
             id="path266" />
        </g>
        <g
           id="g268"
           transform="translate(429.1376,119.2268)">
          <path
             d="M 0,0 C 0.432,-2.809 0.864,-5.617 1.296,-8.426"
             style="fill:none;stroke:#000000;stroke-width:1;stroke-linecap:round;stroke-linejoin:round;stroke-miterlimit:10;stroke-dasharray:none;stroke-opacity:1"
             id="path270" />
        </g>
        <g
           id="g272"
           transform="translate(377.2648,128.4862)">
          <path
             d="m 0,0 c -4.079,-3.648 -8.158,-7.296 -12.132,-11.042 -0.54,-1.998 -1.08,-3.997 -1.62,-5.995"
             style="fill:none;stroke:#000000;stroke-width:1;stroke-linecap:round;stroke-linejoin:round;stroke-miterlimit:10;stroke-dasharray:none;stroke-opacity:1"
             id="path274" />
        </g>
        <g
           id="g276"
           transform="translate(369.6699,116.9582)">
          <path
             d="M 0,0 C -0.162,-1.512 -0.324,-3.025 -0.486,-4.537"
             style="fill:none;stroke:#000000;stroke-width:1;stroke-linecap:round;stroke-linejoin:round;stroke-miterlimit:10;stroke-dasharray:none;stroke-opacity:1"
             id="path278" />
        </g>
        <g
           id="g280"
           transform="translate(370.6421,147.0972)">
          <path
             d="m 0,0 c -2.485,-3.133 -4.969,-6.265 -7.184,-9.392 -0.543,-4.645 -1.085,-9.289 -1.628,-13.934"
             style="fill:none;stroke:#000000;stroke-width:1;stroke-linecap:round;stroke-linejoin:round;stroke-miterlimit:10;stroke-dasharray:none;stroke-opacity:1"
             id="path282" />
        </g>
        <g
           id="g284"
           transform="translate(366.9152,134.2962)">
          <path
             d="M 0,0 C -0.594,-3.565 -1.188,-7.13 -1.782,-10.694"
             style="fill:none;stroke:#000000;stroke-width:1;stroke-linecap:round;stroke-linejoin:round;stroke-miterlimit:10;stroke-dasharray:none;stroke-opacity:1"
             id="path286" />
        </g>
        <g
           id="g288"
           transform="translate(348.1485,115.0717)">
          <path
             d="M 0,0 C 2.784,-1.149 5.567,-2.298 8.351,-3.446"
             style="fill:none;stroke:#000000;stroke-width:1;stroke-linecap:round;stroke-linejoin:round;stroke-miterlimit:10;stroke-dasharray:none;stroke-opacity:1"
             id="path290" />
        </g>
        <g
           id="g292"
           transform="translate(333.1699,129.2549)">
          <path
             d="m 0,0 c -0.265,-3.005 -0.53,-6.009 -1.06,-10.207 1.413,-2.032 2.827,-4.065 4.241,-6.097"
             style="fill:none;stroke:#000000;stroke-width:1;stroke-linecap:round;stroke-linejoin:round;stroke-miterlimit:10;stroke-dasharray:none;stroke-opacity:1"
             id="path294" />
        </g>
        <g
           id="g296"
           transform="translate(330.7839,116.5298)">
          <path
             d="M 0,0 C 0.928,-1.591 1.856,-3.181 2.784,-4.772"
             style="fill:none;stroke:#000000;stroke-width:1;stroke-linecap:round;stroke-linejoin:round;stroke-miterlimit:10;stroke-dasharray:none;stroke-opacity:1"
             id="path298" />
        </g>
        <g
           id="g300"
           transform="translate(343.6417,112.9508)">
          <path
             d="M 0,0 C 1.016,-1.37 2.033,-2.739 3.049,-4.109"
             style="fill:none;stroke:#000000;stroke-width:1;stroke-linecap:round;stroke-linejoin:round;stroke-miterlimit:10;stroke-dasharray:none;stroke-opacity:1"
             id="path302" />
        </g>
        <path
           d="M -40,107.397 H 527 V -24.95 H -40 Z"
           style="fill:#ffffff;fill-opacity:1;fill-rule:nonzero;stroke:#000000;stroke-width:2;stroke-linecap:round;stroke-linejoin:round;stroke-miterlimit:10;stroke-dasharray:none;stroke-opacity:1"
           id="path304" />
        <g
           id="g306"
           transform="translate(339.7648,100.8337)">
          <path
             d="M 0,0 H 74.432"
             style="fill:none;stroke:#000000;stroke-width:1;stroke-linecap:round;stroke-linejoin:round;stroke-miterlimit:10;stroke-dasharray:none;stroke-opacity:1"
             id="path308" />
        </g>
        <g
           id="g310"
           transform="translate(432.5854,100.3959)">
          <path
             d="M 0,0 H 30.21"
             style="fill:none;stroke:#000000;stroke-width:1;stroke-linecap:round;stroke-linejoin:round;stroke-miterlimit:10;stroke-dasharray:none;stroke-opacity:1"
             id="path312" />
        </g>
        <g
           id="g314"
           transform="translate(476.3328,102.2972)">
          <path
             d="M 0,0 H 27.329"
             style="fill:none;stroke:#000000;stroke-width:1;stroke-linecap:round;stroke-linejoin:round;stroke-miterlimit:10;stroke-dasharray:none;stroke-opacity:1"
             id="path316" />
        </g>
        <g
           id="g318"
           transform="translate(461.8799,96.2532)">
          <path
             d="M 0,0 H 17.081"
             style="fill:none;stroke:#000000;stroke-width:1;stroke-linecap:round;stroke-linejoin:round;stroke-miterlimit:10;stroke-dasharray:none;stroke-opacity:1"
             id="path320" />
        </g>
        <g
           id="g322"
           transform="translate(406.1706,95.9904)">
          <path
             d="M 0,0 H 15.241"
             style="fill:none;stroke:#000000;stroke-width:1;stroke-linecap:round;stroke-linejoin:round;stroke-miterlimit:10;stroke-dasharray:none;stroke-opacity:1"
             id="path324" />
        </g>
        <g
           id="g326"
           transform="translate(383.8344,87.8443)">
          <path
             d="M 0,0 H 29.957"
             style="fill:none;stroke:#000000;stroke-width:1;stroke-linecap:round;stroke-linejoin:round;stroke-miterlimit:10;stroke-dasharray:none;stroke-opacity:1"
             id="path328" />
        </g>
        <g
           id="g330"
           transform="translate(452.1571,89.421)">
          <path
             d="M 0,0 H 7.095"
             style="fill:none;stroke:#000000;stroke-width:1;stroke-linecap:round;stroke-linejoin:round;stroke-miterlimit:10;stroke-dasharray:none;stroke-opacity:1"
             id="path332" />
        </g>
        <g
           id="g334"
           transform="translate(265.2545,100.1565)">
          <path
             d="M 0,0 H 46.786"
             style="fill:none;stroke:#000000;stroke-width:1;stroke-linecap:round;stroke-linejoin:round;stroke-miterlimit:10;stroke-dasharray:none;stroke-opacity:1"
             id="path336" />
        </g>
        <g
           id="g338"
           transform="translate(300.8756,95.9033)">
          <path
             d="M 0,0 H 54.229"
             style="fill:none;stroke:#000000;stroke-width:1;stroke-linecap:round;stroke-linejoin:round;stroke-miterlimit:10;stroke-dasharray:none;stroke-opacity:1"
             id="path340" />
        </g>
        <g
           id="g342"
           transform="translate(344.2057,88.7259)">
          <path
             d="M 0,0 H 8.772"
             style="fill:none;stroke:#000000;stroke-width:1;stroke-linecap:round;stroke-linejoin:round;stroke-miterlimit:10;stroke-dasharray:none;stroke-opacity:1"
             id="path344" />
        </g>
        <g
           id="g346"
           transform="translate(221.8564,100.0079)">
          <path
             d="M 0,0 H -34.66"
             style="fill:none;stroke:#000000;stroke-width:1;stroke-linecap:round;stroke-linejoin:round;stroke-miterlimit:10;stroke-dasharray:none;stroke-opacity:1"
             id="path348" />
        </g>
        <g
           id="g350"
           transform="translate(191.2265,92.2161)">
          <path
             d="M 0,0 H -31.167"
             style="fill:none;stroke:#000000;stroke-width:1;stroke-linecap:round;stroke-linejoin:round;stroke-miterlimit:10;stroke-dasharray:none;stroke-opacity:1"
             id="path352" />
        </g>
        <g
           id="g354"
           transform="translate(170.8066,101.3514)">
          <path
             d="M 0,0 H -74.694"
             style="fill:none;stroke:#000000;stroke-width:1;stroke-linecap:round;stroke-linejoin:round;stroke-miterlimit:10;stroke-dasharray:none;stroke-opacity:1"
             id="path356" />
        </g>
        <g
           id="g358"
           transform="translate(-8.0477,101.3833)">
          <path
             d="M 0,0 H 69.626"
             style="fill:none;stroke:#000000;stroke-width:1;stroke-linecap:round;stroke-linejoin:round;stroke-miterlimit:10;stroke-dasharray:none;stroke-opacity:1"
             id="path360" />
        </g>
        <g
           id="g362"
           transform="translate(37.4303,96.5984)">
          <path
             d="M 0,0 H 77.272"
             style="fill:none;stroke:#000000;stroke-width:1;stroke-linecap:round;stroke-linejoin:round;stroke-miterlimit:10;stroke-dasharray:none;stroke-opacity:1"
             id="path364" />
        </g>
        <g
           id="g366"
           transform="translate(109.672,92.1267)">
          <path
             d="M 0,0 H 19.721"
             style="fill:none;stroke:#000000;stroke-width:1;stroke-linecap:round;stroke-linejoin:round;stroke-miterlimit:10;stroke-dasharray:none;stroke-opacity:1"
             id="path368" />
        </g>
        <g
           id="g370"
           transform="translate(27.9725,93.5353)">
          <path
             d="M 0,0 H -35.215"
             style="fill:none;stroke:#000000;stroke-width:1;stroke-linecap:round;stroke-linejoin:round;stroke-miterlimit:10;stroke-dasharray:none;stroke-opacity:1"
             id="path372" />
        </g>
        <g
           id="g374"
           transform="translate(40.4488,87.2972)">
          <path
             d="M 0,0 H 20.123"
             style="fill:none;stroke:#000000;stroke-width:1;stroke-linecap:round;stroke-linejoin:round;stroke-miterlimit:10;stroke-dasharray:none;stroke-opacity:1"
             id="path376" />
        </g>
        <g
           id="g378"
           transform="translate(246.966,87.4004)">
          <path
             d="M 0,0 H 10.454"
             style="fill:none;stroke:#000000;stroke-width:1;stroke-linecap:round;stroke-linejoin:round;stroke-miterlimit:10;stroke-dasharray:none;stroke-opacity:1"
             id="path380" />
        </g>
        <g
           id="g382"
           transform="translate(105.332,85.7143)">
          <path
             d="M 0,0 H 7.082"
             style="fill:none;stroke:#000000;stroke-width:1;stroke-linecap:round;stroke-linejoin:round;stroke-miterlimit:10;stroke-dasharray:none;stroke-opacity:1"
             id="path384" />
        </g>
        <g
           id="g386"
           transform="translate(70.9351,78.6326)">
          <path
             d="M 0,0 H 10.117"
             style="fill:none;stroke:#000000;stroke-width:1;stroke-linecap:round;stroke-linejoin:round;stroke-miterlimit:10;stroke-dasharray:none;stroke-opacity:1"
             id="path388" />
        </g>
        <g
           id="g390"
           transform="translate(151.8689,82.0048)">
          <path
             d="M 0,0 H 13.152"
             style="fill:none;stroke:#000000;stroke-width:1;stroke-linecap:round;stroke-linejoin:round;stroke-miterlimit:10;stroke-dasharray:none;stroke-opacity:1"
             id="path392" />
        </g>
        <g
           id="g394"
           transform="translate(302.6079,82.6793)">
          <path
             d="M 0,0 H 8.768"
             style="fill:none;stroke:#000000;stroke-width:1;stroke-linecap:round;stroke-linejoin:round;stroke-miterlimit:10;stroke-dasharray:none;stroke-opacity:1"
             id="path396" />
        </g>
        <g
           id="g398"
           transform="translate(369.7155,77.2837)">
          <path
             d="M 0,0 H 6.744"
             style="fill:none;stroke:#000000;stroke-width:1;stroke-linecap:round;stroke-linejoin:round;stroke-miterlimit:10;stroke-dasharray:none;stroke-opacity:1"
             id="path400" />
        </g>
        <g
           id="g402"
           transform="translate(417.9385,77.9581)">
          <path
             d="M 0,0 H 9.78"
             style="fill:none;stroke:#000000;stroke-width:1;stroke-linecap:round;stroke-linejoin:round;stroke-miterlimit:10;stroke-dasharray:none;stroke-opacity:1"
             id="path404" />
        </g>
        <g
           id="g406"
           transform="translate(123.2048,77.2837)">
          <path
             d="M 0,0 H 9.779"
             style="fill:none;stroke:#000000;stroke-width:1;stroke-linecap:round;stroke-linejoin:round;stroke-miterlimit:10;stroke-dasharray:none;stroke-opacity:1"
             id="path408" />
        </g>
        <g
           id="g410"
           transform="translate(-1.2308,71.8881)">
          <path
             d="M 0,0 H 7.756"
             style="fill:none;stroke:#000000;stroke-width:1;stroke-linecap:round;stroke-linejoin:round;stroke-miterlimit:10;stroke-dasharray:none;stroke-opacity:1"
             id="path412" />
        </g>
        <g
           id="g414"
           transform="translate(27.4333,76.272)">
          <path
             d="M 0,0 H 9.779"
             style="fill:none;stroke:#000000;stroke-width:1;stroke-linecap:round;stroke-linejoin:round;stroke-miterlimit:10;stroke-dasharray:none;stroke-opacity:1"
             id="path416" />
        </g>
        <g
           id="g418"
           transform="translate(490.1044,91.4471)">
          <path
             d="M 0,0 H 11.128"
             style="fill:none;stroke:#000000;stroke-width:1;stroke-linecap:round;stroke-linejoin:round;stroke-miterlimit:10;stroke-dasharray:none;stroke-opacity:1"
             id="path420" />
        </g>
        <g
           id="g422"
           transform="translate(473.9176,79.307)">
          <path
             d="M 0,0 H 5.396"
             style="fill:none;stroke:#000000;stroke-width:1;stroke-linecap:round;stroke-linejoin:round;stroke-miterlimit:10;stroke-dasharray:none;stroke-opacity:1"
             id="path424" />
        </g>
        <g
           id="g426"
           transform="translate(275.63,56.0386)">
          <path
             d="M 0,0 H 8.768"
             style="fill:none;stroke:#000000;stroke-width:1;stroke-linecap:round;stroke-linejoin:round;stroke-miterlimit:10;stroke-dasharray:none;stroke-opacity:1"
             id="path428" />
        </g>
        <g
           id="g430"
           transform="translate(209.5341,70.5392)">
          <path
             d="M 0,0 H 9.78"
             style="fill:none;stroke:#000000;stroke-width:1;stroke-linecap:round;stroke-linejoin:round;stroke-miterlimit:10;stroke-dasharray:none;stroke-opacity:1"
             id="path432" />
        </g>
        <g
           id="g434"
           transform="translate(166.3695,64.4692)">
          <path
             d="M 0,0 H 8.768"
             style="fill:none;stroke:#000000;stroke-width:1;stroke-linecap:round;stroke-linejoin:round;stroke-miterlimit:10;stroke-dasharray:none;stroke-opacity:1"
             id="path436" />
        </g>
        <g
           id="g438"
           transform="translate(93.8664,54.3525)">
          <path
             d="M 0,0 H 9.105"
             style="fill:none;stroke:#000000;stroke-width:1;stroke-linecap:round;stroke-linejoin:round;stroke-miterlimit:10;stroke-dasharray:none;stroke-opacity:1"
             id="path440" />
        </g>
        <g
           id="g442"
           transform="translate(191.6613,37.154)">
          <path
             d="M 0,0 H 7.756"
             style="fill:none;stroke:#000000;stroke-width:1;stroke-linecap:round;stroke-linejoin:round;stroke-miterlimit:10;stroke-dasharray:none;stroke-opacity:1"
             id="path444" />
        </g>
        <g
           id="g446"
           transform="translate(326.888,39.1774)">
          <path
             d="M 0,0 H 7.419"
             style="fill:none;stroke:#000000;stroke-width:1;stroke-linecap:round;stroke-linejoin:round;stroke-miterlimit:10;stroke-dasharray:none;stroke-opacity:1"
             id="path448" />
        </g>
      </g>
    </g>
    <g
       id="g450">
      <g
         id="g452"
         clip-path="url(#clipPath456)">
        <g
           id="g458"
           transform="translate(180.2695,227.7999)">
          <path
             d="m 0,0 c -17.449,17.34 -39.328,30.418 -63.687,37.957 -16.916,18.061 -34.383,37.074 -40.965,60.666 -5.589,20.031 -2.441,42.228 8.513,60.033 10.954,17.805 29.566,30.976 51.859,37.344 C -46.527,153.5 -30.369,110.363 2.073,77.345 7.328,54.552 19.046,33.206 35.59,16.293 20.555,16.031 5.703,10.049 0,0"
             style="fill:#ffffff;fill-opacity:1;fill-rule:nonzero;stroke:none"
             id="path460" />
        </g>
        <g
           id="g462"
           transform="translate(180.2695,227.7999)">
          <path
             d="m 0,0 c -17.449,17.34 -39.328,30.418 -63.687,37.957 -16.916,18.061 -34.383,37.074 -40.965,60.666 -5.589,20.031 -2.441,42.228 8.513,60.033 10.954,17.805 29.566,30.976 51.859,37.344 C -46.527,153.5 -30.369,110.363 2.073,77.345 7.328,54.552 19.046,33.206 35.59,16.293 20.555,16.031 5.703,10.049 0,0 Z"
             style="fill:none;stroke:#000000;stroke-width:2;stroke-linecap:round;stroke-linejoin:round;stroke-miterlimit:10;stroke-dasharray:none;stroke-opacity:1"
             id="path464" />
        </g>
        <g
           id="g466"
           transform="translate(135.4744,422.5034)">
          <path
             d="m 0,0 c -25.74,-8.347 -46.423,-30.129 -52.962,-55.774 -6.539,-25.646 1.279,-54.321 22.829,-73.767 20.618,12.121 43.907,19.908 68.108,22.605 -22.501,-5.183 -44.081,-14.136 -63.662,-28.124 25.784,-13.45 49.888,-29.952 71.613,-49.027"
             style="fill:none;stroke:#000000;stroke-width:2;stroke-linecap:round;stroke-linejoin:round;stroke-miterlimit:10;stroke-dasharray:none;stroke-opacity:1"
             id="path468" />
        </g>
        <g
           id="g470"
           transform="translate(215.8216,255.3209)">
          <path
             d="m 0,0 c 18.81,16.091 32.549,38.024 38.819,61.97 6.27,23.946 5.042,49.798 -3.468,73.042 28.153,32.224 63.468,56.449 102.615,68.838 39.146,12.39 81.969,12.893 122.749,-0.814 C 202.961,163.24 158.353,104.689 136.16,36.913 101.273,12.184 75.433,-25.029 64.452,-66.357 34.968,-55.522 10.933,-30.797 0,0"
             style="fill:#ffffff;fill-opacity:1;fill-rule:nonzero;stroke:none"
             id="path472" />
        </g>
        <g
           id="g474"
           transform="translate(215.8216,255.3209)">
          <path
             d="m 0,0 c 18.81,16.091 32.549,38.024 38.819,61.97 6.27,23.946 5.042,49.798 -3.468,73.042 28.153,32.224 63.468,56.449 102.615,68.838 39.146,12.39 81.969,12.893 122.749,-0.814 C 202.961,163.24 158.353,104.689 136.16,36.913 101.273,12.184 75.433,-25.029 64.452,-66.357 34.968,-55.522 10.933,-30.797 0,0 Z"
             style="fill:none;stroke:#000000;stroke-width:2;stroke-linecap:round;stroke-linejoin:round;stroke-miterlimit:10;stroke-dasharray:none;stroke-opacity:1"
             id="path476" />
        </g>
        <g
           id="g478"
           transform="translate(208.6454,187.4489)">
          <path
             d="m 0,0 c 2.678,-12.521 9.254,-23.336 21.376,-31.397 -0.138,-4.385 -3.522,-17.922 5.226,-23.946 1.21,1.627 3.58,4.342 5.462,6.042 3.042,2.556 6.749,4.314 10.771,5.231 0.119,8.434 -0.166,16.873 -1.163,27.016 -6.341,2.424 -11.136,7.963 -13.886,14.169 -2.75,6.207 -3.661,13.067 -4.045,19.845"
             style="fill:#ffffff;fill-opacity:1;fill-rule:nonzero;stroke:#000000;stroke-width:2;stroke-linecap:round;stroke-linejoin:round;stroke-miterlimit:10;stroke-dasharray:none;stroke-opacity:1"
             id="path480" />
        </g>
        <g
           id="g482"
           transform="translate(236.8365,142.9455)">
          <path
             d="m 0,0 c 1.111,-5.175 4.682,-9.766 9.426,-12.114 0.43,4.06 1.584,8.042 3.391,11.703"
             style="fill:#ffffff;fill-opacity:1;fill-rule:nonzero;stroke:#000000;stroke-width:2;stroke-linecap:round;stroke-linejoin:round;stroke-miterlimit:10;stroke-dasharray:none;stroke-opacity:1"
             id="path484" />
        </g>
        <g
           id="g486"
           transform="translate(251.449,153.311)">
          <path
             d="m 0,0 c 0.195,-4.7 3.451,-11.534 6.052,-16.953 -5.63,-0.559 -11.457,2.483 -14.216,7.421"
             style="fill:#ffffff;fill-opacity:1;fill-rule:nonzero;stroke:#000000;stroke-width:2;stroke-linecap:round;stroke-linejoin:round;stroke-miterlimit:10;stroke-dasharray:none;stroke-opacity:1"
             id="path488" />
        </g>
        <g
           id="g490"
           transform="translate(255.605,206.5837)">
          <path
             d="m 0,0 c 2.893,23.119 -19.77,43.288 -41.905,50.654 -4.459,14.667 -14.683,25.335 -28.829,37.095 -10.261,-8.353 -5.493,-11.62 -17.683,-21.631 8.779,-7.298 11.041,-14.654 13.723,-25.544 -18.775,-27.55 7.858,-55.925 31.203,-65.912 10.907,-4.666 31.153,-4.597 37.107,1.356 4.36,4.36 4.801,11.328 6.384,23.982"
             style="fill:#ffffff;fill-opacity:1;fill-rule:nonzero;stroke:none"
             id="path492" />
        </g>
        <g
           id="g494"
           transform="translate(255.605,206.5837)">
          <path
             d="m 0,0 c 2.893,23.119 -19.77,43.288 -41.905,50.654 -4.459,14.667 -14.683,25.335 -28.829,37.095 -10.261,-8.353 -5.493,-11.62 -17.683,-21.631 8.779,-7.298 11.041,-14.654 13.723,-25.544 -18.775,-27.55 7.858,-55.925 31.203,-65.912 10.907,-4.666 31.153,-4.597 37.107,1.356 4.36,4.36 4.801,11.328 6.384,23.982 z"
             style="fill:none;stroke:#000000;stroke-width:2;stroke-linecap:round;stroke-linejoin:round;stroke-miterlimit:10;stroke-dasharray:none;stroke-opacity:1"
             id="path496" />
        </g>
        <g
           id="g498"
           transform="translate(244.5002,183.6399)">
          <path
             d="m 0,0 c 9.306,-8.794 20.856,-13.973 35.412,-13.738 2.373,-3.689 7.262,-16.759 17.884,-16.759 0.074,2.026 0.486,5.607 1.072,8.074 1.057,3.83 3.113,7.381 5.905,10.417 C 55.588,-4.992 50.568,1.797 43.994,9.586 37.397,7.986 30.306,9.829 24.522,13.382 18.737,16.934 14.096,22.068 9.936,27.433"
             style="fill:#ffffff;fill-opacity:1;fill-rule:nonzero;stroke:#000000;stroke-width:2;stroke-linecap:round;stroke-linejoin:round;stroke-miterlimit:10;stroke-dasharray:none;stroke-opacity:1"
             id="path500" />
        </g>
        <g
           id="g502"
           transform="translate(292.9578,162.9721)">
          <path
             d="M 0,0 C 3.85,-3.633 9.394,-5.388 14.633,-4.632 12.686,-1.044 11.378,2.89 10.79,6.93"
             style="fill:#ffffff;fill-opacity:1;fill-rule:nonzero;stroke:#000000;stroke-width:2;stroke-linecap:round;stroke-linejoin:round;stroke-miterlimit:10;stroke-dasharray:none;stroke-opacity:1"
             id="path504" />
        </g>
        <g
           id="g506"
           transform="translate(299.115,179.7964)">
          <path
             d="M 0,0 C 2.826,-3.76 9.384,-7.542 14.599,-10.532 10.279,-14.185 3.755,-14.983 -1.319,-12.48"
             style="fill:#ffffff;fill-opacity:1;fill-rule:nonzero;stroke:#000000;stroke-width:2;stroke-linecap:round;stroke-linejoin:round;stroke-miterlimit:10;stroke-dasharray:none;stroke-opacity:1"
             id="path508" />
        </g>
        <g
           id="g510"
           transform="translate(206.774,260.81)">
          <path
             d="m 0,0 c 16.939,14.506 34.608,30.066 41.719,51.203 7.199,21.396 2.323,44.753 -2.963,66.7 0.12,3.255 0.666,6.495 0.975,9.926 -2.867,5.181 -3.411,11.593 -1.459,17.183 0.66,1.89 1.974,3.946 3.976,3.99 0.271,0.006 0.547,-0.056 0.802,-0.15 3.522,-1.298 2.263,-4.053 4.739,-5.901 27.768,28.948 63.599,50.081 102.369,60.375 38.77,10.293 80.365,9.718 118.206,-2.978 -39.111,9.633 -80.923,8.027 -119.179,-4.578 C 114.032,184.188 81.984,163.354 57.092,135.201 53.05,130.629 51.391,124.411 52.617,118.434 55.415,104.782 57.641,90.996 57.694,77.082 57.758,60.056 54.384,42.671 45.472,28.164 39.883,19.065 32.299,11.358 24.343,4.235 21.692,1.862 18.955,-0.5 17.032,-3.493 15.11,-6.487 14.088,-10.276 15.212,-13.652"
             style="fill:#ffffff;fill-opacity:1;fill-rule:nonzero;stroke:#000000;stroke-width:2;stroke-linecap:round;stroke-linejoin:round;stroke-miterlimit:10;stroke-dasharray:none;stroke-opacity:1"
             id="path512" />
        </g>
        <g
           id="g514"
           transform="translate(257.5009,390.0333)">
          <path
             d="m 0,0 c 44.649,-18.575 80.047,-56.41 93.463,-94.991 -17.435,29.596 -42.07,54.917 -71.177,73.157 -7.307,4.579 -15.09,8.79 -23.61,10.119"
             style="fill:#ffffff;fill-opacity:1;fill-rule:nonzero;stroke:#000000;stroke-width:2;stroke-linecap:round;stroke-linejoin:round;stroke-miterlimit:10;stroke-dasharray:none;stroke-opacity:1"
             id="path516" />
        </g>
        <g
           id="g518"
           transform="translate(247.3452,376.2776)">
          <path
             d="m 0,0 c -5.476,5.199 -8.849,12.554 -9.214,20.096 -0.085,1.75 0.006,3.584 0.859,5.114 0.854,1.53 2.662,2.647 4.357,2.203 1.72,-0.451 2.694,-2.218 3.472,-3.817 1.142,-2.349 2.285,-4.698 3.427,-7.046"
             style="fill:#ffffff;fill-opacity:1;fill-rule:nonzero;stroke:#000000;stroke-width:2;stroke-linecap:round;stroke-linejoin:round;stroke-miterlimit:10;stroke-dasharray:none;stroke-opacity:1"
             id="path520" />
        </g>
        <g
           id="g522"
           transform="translate(83.0512,325.9717)">
          <path
             d="M 0,0 C -5.806,-0.165 -12.927,-2.461 -16.318,-5.561 4.731,-19.089 25.417,-30.992 47.509,-39.749 33.349,-48.378 20.07,-55.854 6.518,-64.834 c 29.039,-2.91 60.406,4.601 85.65,21.329 C 66.904,-21.809 35.633,-7.18 0,0"
             style="fill:#ffffff;fill-opacity:1;fill-rule:nonzero;stroke:none"
             id="path524" />
        </g>
        <g
           id="g526"
           transform="translate(83.0512,325.9717)">
          <path
             d="M 0,0 C -5.806,-0.165 -12.927,-2.461 -16.318,-5.561 4.731,-19.089 25.417,-30.992 47.509,-39.749 33.349,-48.378 20.07,-55.854 6.518,-64.834 c 29.039,-2.91 60.406,4.601 85.65,21.329 C 66.904,-21.809 35.633,-7.18 0,0 Z"
             style="fill:none;stroke:#000000;stroke-width:2;stroke-linecap:round;stroke-linejoin:round;stroke-miterlimit:10;stroke-dasharray:none;stroke-opacity:1"
             id="path528" />
        </g>
        <g
           id="g530"
           transform="translate(189.5123,291.0992)">
          <path
             d="m 0,0 c 13.857,4.071 30.208,9.543 44.065,13.613 2.933,0.862 6.518,2.623 6.223,5.666 -0.302,3.121 -4.323,4.097 -7.454,4.275 -18.341,1.042 -34.35,1.826 -52.691,2.868 -9.125,5.96 -24.344,5.811 -31.135,0.568 -17.374,6.024 -37.538,12.467 -55.366,13.463 -5.108,0.285 -10.33,0.264 -15.209,-1.275 -4.879,-1.54 -9.424,-4.8 -11.212,-9.867 17.686,2.353 35.227,-4.745 50.978,-13.127 15.75,-8.382 31.042,-18.324 47.855,-22.045 -23.738,-12.704 -50.214,-20.261 -75.997,-24.1 10.659,-5.623 23.576,-4.76 35.319,-2.048 11.742,2.711 23.16,7.124 35.162,8.215 4.241,0.385 8.567,0.359 12.652,1.56 4.085,1.201 8.026,3.931 9.296,7.996"
             style="fill:#ffffff;fill-opacity:1;fill-rule:nonzero;stroke:#000000;stroke-width:2;stroke-linecap:round;stroke-linejoin:round;stroke-miterlimit:10;stroke-dasharray:none;stroke-opacity:1"
             id="path532" />
        </g>
        <g
           id="g534"
           transform="translate(158.2654,303.5579)">
          <path
             d="m 0,0 c 0,5.095 3.64,9.225 8.131,9.225 4.49,0 8.13,-4.13 8.13,-9.225 0,-5.095 -3.64,-9.225 -8.13,-9.225 C 3.64,-9.225 0,-5.095 0,0"
             style="fill:#000000;fill-opacity:1;fill-rule:nonzero;stroke:none"
             id="path536" />
        </g>
        <g
           id="g538"
           transform="translate(166.3902,305.8997)">
          <path
             d="M 0,0 C -0.713,2.03 0.643,4.393 3.029,5.279 5.414,6.165 7.926,5.238 8.639,3.208 9.352,1.178 7.996,-1.185 5.61,-2.071 3.225,-2.957 0.713,-2.03 0,0"
             style="fill:#ffffff;fill-opacity:1;fill-rule:nonzero;stroke:none"
             id="path540" />
        </g>
        <g
           id="g542"
           transform="translate(148.7002,317.3157)">
          <path
             d="m 0,0 c 2.904,-1.668 4.472,-4.983 5.222,-8.247 0.751,-3.264 0.862,-6.659 1.757,-9.886 1.484,-5.356 5.65,-10.501 10.509,-13.2"
             style="fill:none;stroke:#000000;stroke-width:1;stroke-linecap:round;stroke-linejoin:round;stroke-miterlimit:10;stroke-dasharray:none;stroke-opacity:1"
             id="path544" />
        </g>
        <g
           id="g546"
           transform="translate(189.7183,303.694)">
          <path
             d="M 0,0 C 0.331,-4.481 0.072,-9.006 -0.767,-13.42"
             style="fill:none;stroke:#000000;stroke-width:1;stroke-linecap:round;stroke-linejoin:round;stroke-miterlimit:10;stroke-dasharray:none;stroke-opacity:1"
             id="path548" />
        </g>
        <g
           id="g550"
           transform="translate(192.7208,301.2085)">
          <path
             d="M 0,0 C 0.564,-2.579 0.345,-5.324 -0.622,-7.781"
             style="fill:none;stroke:#000000;stroke-width:1;stroke-linecap:round;stroke-linejoin:round;stroke-miterlimit:10;stroke-dasharray:none;stroke-opacity:1"
             id="path552" />
        </g>
        <g
           id="g554"
           transform="translate(187.3155,280.5195)">
          <path
             d="M 0,0 C -0.245,-4.103 -2.11,-8.086 -5.104,-10.903"
             style="fill:none;stroke:#000000;stroke-width:1;stroke-linecap:round;stroke-linejoin:round;stroke-miterlimit:10;stroke-dasharray:none;stroke-opacity:1"
             id="path556" />
        </g>
        <g
           id="g558"
           transform="translate(188.7201,273.459)">
          <path
             d="M 0,0 C -0.687,-1.945 -1.887,-3.705 -3.446,-5.055"
             style="fill:none;stroke:#000000;stroke-width:1;stroke-linecap:round;stroke-linejoin:round;stroke-miterlimit:10;stroke-dasharray:none;stroke-opacity:1"
             id="path560" />
        </g>
        <g
           id="g562"
           transform="translate(205.7485,256.5835)">
          <path
             d="m 0,0 c -0.692,-2.766 1.114,-5.67 3.543,-7.164 2.429,-1.494 5.352,-1.895 8.18,-2.265"
             style="fill:none;stroke:#000000;stroke-width:1;stroke-linecap:round;stroke-linejoin:round;stroke-miterlimit:10;stroke-dasharray:none;stroke-opacity:1"
             id="path564" />
        </g>
        <g
           id="g566"
           transform="translate(211.4831,244.7825)">
          <path
             d="M 0,0 C 2.135,-0.742 4.409,-1.081 6.667,-0.993"
             style="fill:none;stroke:#000000;stroke-width:1;stroke-linecap:round;stroke-linejoin:round;stroke-miterlimit:10;stroke-dasharray:none;stroke-opacity:1"
             id="path568" />
        </g>
        <g
           id="g570"
           transform="translate(244.5231,208.3337)">
          <path
             d="M 0,0 C -3.491,-5.771 -4.507,-12.984 -2.746,-19.495"
             style="fill:none;stroke:#000000;stroke-width:1;stroke-linecap:round;stroke-linejoin:round;stroke-miterlimit:10;stroke-dasharray:none;stroke-opacity:1"
             id="path572" />
        </g>
        <g
           id="g574"
           transform="translate(238.07,198.9445)">
          <path
             d="M 0,0 C -1.022,-3.051 -0.615,-6.549 1.081,-9.284"
             style="fill:none;stroke:#000000;stroke-width:1;stroke-linecap:round;stroke-linejoin:round;stroke-miterlimit:10;stroke-dasharray:none;stroke-opacity:1"
             id="path576" />
        </g>
        <g
           id="g578"
           transform="translate(188.7871,266.9111)">
          <path
             d="m 0,0 c 2.299,-4.89 3.381,-10.348 4.344,-18.584 5.211,-0.543 9.674,-4.245 12.443,-8.693 2.768,-4.449 4.112,-9.614 5.399,-14.694 1.287,-5.079 2.589,-10.249 5.29,-14.739 3.864,-6.424 10.58,-11.059 17.958,-12.394"
             style="fill:none;stroke:#000000;stroke-width:1;stroke-linecap:round;stroke-linejoin:round;stroke-miterlimit:10;stroke-dasharray:none;stroke-opacity:1"
             id="path580" />
        </g>
      </g>
    </g>
    <g
       id="g582">
      <g
         id="g584"
         clip-path="url(#clipPath588)">
        <g
           id="g590"
           transform="translate(194.3296,-34.1002)">
          <path
             d="m 0,0 c 109.763,12.703 222.553,9.712 332.67,18.318 -2.488,25.952 -11.954,73.988 -12.957,101.994 -0.286,7.98 -7.131,15.219 -15.78,16.688 0.544,-5.373 3.354,-10.473 7.737,-14.044 -4.777,3.293 -11.992,3.417 -17.112,0.293 1.815,-3.511 5.041,-6.383 8.955,-7.971 -5.083,-0.633 -9.892,-3.227 -12.971,-6.995 -4.204,3.08 -11.082,2.678 -15.027,-0.878 2.906,4.706 2.65,10.802 -0.636,15.132 -5.306,-3.337 -8.445,-9.336 -7.879,-15.059 -2.444,5.176 -9.63,7.978 -15.631,6.094 0.534,-4.363 3.277,-8.408 7.309,-10.778 -5.498,1.029 -11.675,-1.233 -14.953,-5.475 3.554,-2.875 8.635,-4.153 13.423,-3.376 -6.116,-1.273 -10.925,-6.779 -10.837,-12.41 2.388,0.071 4.775,0.142 7.163,0.213 -3.589,-2.711 -5.814,-6.851 -5.923,-11.017 -4.092,2.035 -9.222,2.353 -13.697,0.848 -0.003,-2.738 1.226,-5.429 3.346,-7.33 -4.065,3.566 -10.716,4.485 -15.956,2.204 1.292,-2.459 2.584,-4.918 3.876,-7.378 -3.182,5.186 -9.06,8.907 -15.588,9.869 -0.797,-3.31 -1.594,-6.619 -2.39,-9.929 -2.311,2.036 -5.801,2.922 -9.02,2.29 3.507,4.453 5.565,9.806 5.844,15.196 -4.971,-2.591 -9.943,-5.182 -18.319,-8.474 2.177,6.184 -1.611,13.437 -8.203,15.705 -2.396,-4.426 -3.789,-9.272 -4.064,-14.141 -2.814,3.183 -7.323,5.072 -11.899,4.985 0.967,-2.228 1.934,-4.456 2.116,-6.79 -3.359,-1.775 -6.718,-3.55 -11.447,-3.723 -0.976,5.848 -5.506,11.016 -11.556,13.185 -2.458,-4.823 -2.416,-10.575 -0.61,-16.37 -3.752,3.634 -10.194,4.749 -15.34,2.656 2.233,-3.524 5.381,-6.555 8.782,-9.404 -5.548,-0.095 -11.083,-2.295 -14.989,-5.957 3.335,-0.932 6.67,-1.863 8.472,-4.793 -3.343,-2.229 -6.686,-4.457 -10.029,-6.685 1.377,5.371 -4.32,10.988 -10.346,10.201 0.361,-3.523 0.722,-7.046 1.084,-10.568 -2.044,2.021 -5.31,2.877 -8.338,2.404 -0.532,0.463 -1.07,0.899 -1.614,1.305 2.175,4.061 2.629,8.833 1.171,13.059 0.272,0.279 0.545,0.56 0.817,0.839 -3.267,0.931 -6.814,0.817 -10.071,-0.125 -0.908,2.885 -2.692,5.52 -5.244,7.414 -1.653,-2.283 -2.768,-4.863 -3.307,-7.523 -0.572,2.397 -2.037,4.677 -4.159,6.343 -2.399,-2.672 -3.739,-5.314 -4.282,-7.861 -1.436,0.221 -2.908,0.277 -4.367,0.11 4.132,1.988 7.416,5.424 8.98,9.397 -4.674,0.45 -9.535,-0.7 -13.53,-3.059 -1.112,0.999 -2.387,1.85 -3.769,2.525 -0.7,3.064 -2.785,5.855 -5.83,7.326 -0.351,-0.658 -0.663,-1.332 -0.966,-2.007 -0.432,5.636 -2.467,11.333 -5.974,16.202 C 42.566,79.652 40.941,73.535 43.496,68.979 38.549,72.831 31.45,74.319 25.12,72.83 27.2,69.104 30.913,66.141 35.273,64.728 30.655,64.63 26.14,62.524 23.39,59.184 23.229,63.637 21.334,68.024 18.112,71.407 13.263,66.678 12.26,59.092 15.739,53.471 13.298,57.28 9.463,60.352 4.976,62.092 3.611,56.645 5.363,50.642 9.527,46.501 5.67,47.978 0.752,46.7 -1.637,43.601 c -0.111,3.54 -0.223,7.079 -0.335,10.619 -6.077,-0.032 -10.973,-6.365 -8.892,-11.503 -3.61,1.758 -7.22,3.516 -10.831,5.274 1.395,3.147 4.576,4.519 7.757,5.891 -4.359,3.103 -10.138,4.538 -15.649,3.885 2.991,3.281 5.706,6.709 7.449,10.503 -5.379,1.38 -11.613,-0.593 -14.848,-4.699 1.018,5.986 0.292,11.692 -2.787,16.14 -5.706,-2.964 -9.506,-8.696 -9.693,-14.621 -4.71,-0.466 -8.275,0.84 -11.84,2.147 -0.131,2.338 0.53,4.676 1.191,7.014 -4.546,-0.53 -8.763,-3.009 -11.127,-6.543 -0.922,4.789 -2.949,9.404 -5.914,13.466 -6.229,-3.135 -9.016,-10.832 -6.033,-16.667 -8.74,2.134 -14.012,4.032 -19.284,5.931 0.994,-5.305 3.748,-10.332 7.818,-14.273 -3.275,0.193 -6.615,-1.155 -8.633,-3.483 -1.231,3.172 -2.462,6.345 -3.694,9.517 -6.34,-1.832 -11.669,-6.311 -14.131,-11.879 0.952,2.611 1.905,5.222 2.857,7.834 -5.497,1.554 -11.965,-0.252 -15.518,-4.333 1.848,2.169 2.706,5.001 2.339,7.715 -4.636,0.888 -9.677,-0.118 -13.461,-2.686 -0.664,4.114 -3.421,7.917 -7.339,10.121 2.376,0.251 4.751,0.502 7.127,0.753 -0.664,5.592 -6.164,10.401 -12.395,10.839 4.849,-0.126 9.714,1.825 12.852,5.153 -3.814,3.762 -10.237,5.171 -15.548,3.411 3.68,2.892 5.859,7.27 5.805,11.666 -6.197,1.058 -12.945,-2.686 -14.677,-8.144 -0.202,5.747 -4.112,11.269 -9.816,13.862 -2.679,-4.733 -2.119,-10.809 1.388,-15.081 -4.383,2.992 -11.253,2.465 -15.009,-1.153 -3.553,3.319 -8.665,5.241 -13.787,5.185 3.667,2.101 6.481,5.38 7.812,9.104 -5.491,2.407 -12.625,1.313 -16.919,-2.595 3.868,4.129 5.972,9.563 5.794,14.96 -8.375,-2.621 -14.193,-10.716 -13.412,-18.663 2.741,-27.888 -2.241,-53.897 -1.246,-79.95 77.955,4.454 157.463,3.403 236.398,3.179 C 5.66,16.858 -0.094,5.828 0,0"
             style="fill:#ffffff;fill-opacity:1;fill-rule:nonzero;stroke:none"
             id="path592" />
        </g>
        <g
           id="g594"
           transform="translate(194.3296,-34.1002)">
          <path
             d="m 0,0 c 109.763,12.703 222.553,9.712 332.67,18.318 -2.488,25.952 -11.954,73.988 -12.957,101.994 -0.286,7.98 -7.131,15.219 -15.78,16.688 0.544,-5.373 3.354,-10.473 7.737,-14.044 -4.777,3.293 -11.992,3.417 -17.112,0.293 1.815,-3.511 5.041,-6.383 8.955,-7.971 -5.083,-0.633 -9.892,-3.227 -12.971,-6.995 -4.204,3.08 -11.082,2.678 -15.027,-0.878 2.906,4.706 2.65,10.802 -0.636,15.132 -5.306,-3.337 -8.445,-9.336 -7.879,-15.059 -2.444,5.176 -9.63,7.978 -15.631,6.094 0.534,-4.363 3.277,-8.408 7.309,-10.778 -5.498,1.029 -11.675,-1.233 -14.953,-5.475 3.554,-2.875 8.635,-4.153 13.423,-3.376 -6.116,-1.273 -10.925,-6.779 -10.837,-12.41 2.388,0.071 4.775,0.142 7.163,0.213 -3.589,-2.711 -5.814,-6.851 -5.923,-11.017 -4.092,2.035 -9.222,2.353 -13.697,0.848 -0.003,-2.738 1.226,-5.429 3.346,-7.33 -4.065,3.566 -10.716,4.485 -15.956,2.204 1.292,-2.459 2.584,-4.918 3.876,-7.378 -3.182,5.186 -9.06,8.907 -15.588,9.869 -0.797,-3.31 -1.594,-6.619 -2.39,-9.929 -2.311,2.036 -5.801,2.922 -9.02,2.29 3.507,4.453 5.565,9.806 5.844,15.196 -4.971,-2.591 -9.943,-5.182 -18.319,-8.474 2.177,6.184 -1.611,13.437 -8.203,15.705 -2.396,-4.426 -3.789,-9.272 -4.064,-14.141 -2.814,3.183 -7.323,5.072 -11.899,4.985 0.967,-2.228 1.934,-4.456 2.116,-6.79 -3.359,-1.775 -6.718,-3.55 -11.447,-3.723 -0.976,5.848 -5.506,11.016 -11.556,13.185 -2.458,-4.823 -2.416,-10.575 -0.61,-16.37 -3.752,3.634 -10.194,4.749 -15.34,2.656 2.233,-3.524 5.381,-6.555 8.782,-9.404 -5.548,-0.095 -11.083,-2.295 -14.989,-5.957 3.335,-0.932 6.67,-1.863 8.472,-4.793 -3.343,-2.229 -6.686,-4.457 -10.029,-6.685 1.377,5.371 -4.32,10.988 -10.346,10.201 0.361,-3.523 0.722,-7.046 1.084,-10.568 -2.044,2.021 -5.31,2.877 -8.338,2.404 -0.532,0.463 -1.07,0.899 -1.614,1.305 2.175,4.061 2.629,8.833 1.171,13.059 0.272,0.279 0.545,0.56 0.817,0.839 -3.267,0.931 -6.814,0.817 -10.071,-0.125 -0.908,2.885 -2.692,5.52 -5.244,7.414 -1.653,-2.283 -2.768,-4.863 -3.307,-7.523 -0.572,2.397 -2.037,4.677 -4.159,6.343 -2.399,-2.672 -3.739,-5.314 -4.282,-7.861 -1.436,0.221 -2.908,0.277 -4.367,0.11 4.132,1.988 7.416,5.424 8.98,9.397 -4.674,0.45 -9.535,-0.7 -13.53,-3.059 -1.112,0.999 -2.387,1.85 -3.769,2.525 -0.7,3.064 -2.785,5.855 -5.83,7.326 -0.351,-0.658 -0.663,-1.332 -0.966,-2.007 -0.432,5.636 -2.467,11.333 -5.974,16.202 C 42.566,79.652 40.941,73.535 43.496,68.979 38.549,72.831 31.45,74.319 25.12,72.83 27.2,69.104 30.913,66.141 35.273,64.728 30.655,64.63 26.14,62.524 23.39,59.184 23.229,63.637 21.334,68.024 18.112,71.407 13.263,66.678 12.26,59.092 15.739,53.471 13.298,57.28 9.463,60.352 4.976,62.092 3.611,56.645 5.363,50.642 9.527,46.501 5.67,47.978 0.752,46.7 -1.637,43.601 c -0.111,3.54 -0.223,7.079 -0.335,10.619 -6.077,-0.032 -10.973,-6.365 -8.892,-11.503 -3.61,1.758 -7.22,3.516 -10.831,5.274 1.395,3.147 4.576,4.519 7.757,5.891 -4.359,3.103 -10.138,4.538 -15.649,3.885 2.991,3.281 5.706,6.709 7.449,10.503 -5.379,1.38 -11.613,-0.593 -14.848,-4.699 1.018,5.986 0.292,11.692 -2.787,16.14 -5.706,-2.964 -9.506,-8.696 -9.693,-14.621 -4.71,-0.466 -8.275,0.84 -11.84,2.147 -0.131,2.338 0.53,4.676 1.191,7.014 -4.546,-0.53 -8.763,-3.009 -11.127,-6.543 -0.922,4.789 -2.949,9.404 -5.914,13.466 -6.229,-3.135 -9.016,-10.832 -6.033,-16.667 -8.74,2.134 -14.012,4.032 -19.284,5.931 0.994,-5.305 3.748,-10.332 7.818,-14.273 -3.275,0.193 -6.615,-1.155 -8.633,-3.483 -1.231,3.172 -2.462,6.345 -3.694,9.517 -6.34,-1.832 -11.669,-6.311 -14.131,-11.879 0.952,2.611 1.905,5.222 2.857,7.834 -5.497,1.554 -11.965,-0.252 -15.518,-4.333 1.848,2.169 2.706,5.001 2.339,7.715 -4.636,0.888 -9.677,-0.118 -13.461,-2.686 -0.664,4.114 -3.421,7.917 -7.339,10.121 2.376,0.251 4.751,0.502 7.127,0.753 -0.664,5.592 -6.164,10.401 -12.395,10.839 4.849,-0.126 9.714,1.825 12.852,5.153 -3.814,3.762 -10.237,5.171 -15.548,3.411 3.68,2.892 5.859,7.27 5.805,11.666 -6.197,1.058 -12.945,-2.686 -14.677,-8.144 -0.202,5.747 -4.112,11.269 -9.816,13.862 -2.679,-4.733 -2.119,-10.809 1.388,-15.081 -4.383,2.992 -11.253,2.465 -15.009,-1.153 -3.553,3.319 -8.665,5.241 -13.787,5.185 3.667,2.101 6.481,5.38 7.812,9.104 -5.491,2.407 -12.625,1.313 -16.919,-2.595 3.868,4.129 5.972,9.563 5.794,14.96 -8.375,-2.621 -14.193,-10.716 -13.412,-18.663 2.741,-27.888 -2.241,-53.897 -1.246,-79.95 77.955,4.454 157.463,3.403 236.398,3.179 C 5.66,16.858 -0.094,5.828 0,0 Z"
             style="fill:none;stroke:#000000;stroke-width:2;stroke-linecap:round;stroke-linejoin:round;stroke-miterlimit:10;stroke-dasharray:none;stroke-opacity:1"
             id="path596" />
        </g>
      </g>
    </g>
  </g>
</svg>