<svg width="800" height="600" xmlns="http://www.w3.org/2000/svg">
 <g>
  <title>Layer 1</title>
  <path fill="none" stroke="#000" id="svg_9" d="m203,1c2,0 3,1 3,3c0,1 1.49345,1.87856 2,5c0.16019,0.98709 1,4 1,5c0,2 1,5 1,7c0,2 0,4 0,6c0,1 0,5 -1,7c-1,2 -2.513,4.594 -4,7c-1.66251,2.68999 -2.89851,6.07816 -6,10c-4.84467,6.12611 -8.51929,8.55819 -11,12c-2.6149,3.62798 -5,8 -7,10c-3,3 -5.65593,5.38903 -9,8c-4.59599,3.58844 -10.23274,5.73325 -16,11c-4.17715,3.81464 -8.37134,5.74674 -11,10c-2.35114,3.80423 -5.44841,6.80565 -7,11c-1.4305,3.867 -1.51945,5.03873 -2,8c-0.50655,3.12144 -1,6 -1,11c0,3 0,6 0,8c0,3 0,4 0,6c0,3 1,5 1,8c0,2 0,5 0,11c0,5 -1.5695,9.133 -3,13c-0.7758,2.09717 -2.81265,4.2068 -5,6c-2.78832,2.28587 -6.03746,3.38908 -11,4c-4.09222,0.50377 -9.71899,3.31021 -13,6c-2.78832,2.28587 -5,4 -8,5c-3,1 -5,3 -6,4c-2,2 -5,3 -7,5c-2,2 -5.51301,5.59399 -7,8c-1.66251,2.68999 -1.67963,4.02582 -2,6c-0.50654,3.12144 -0.84723,5.04132 -2,9c-0.88413,3.03616 -1.82294,5.65489 -4,12c-1.65482,4.82303 -1.49346,7.87856 -2,11c-0.48055,2.96127 0,6 0,8c0,4 2.94328,8.76727 -1,12c-2.32003,1.90198 -4,0 -6,0c-1,0 -2,3 -3,5c-1,2 -2,2 -3,3c-1,1 -2.18601,2.69254 -4,4c-3.44181,2.48071 -6.54916,5.95517 -10,7c-0.95709,0.28979 -2.18601,1.69254 -4,3c-1.14727,0.8269 -1.29289,2.29291 -2,3c-0.70711,0.70709 -1.1731,1.85272 -2,3c-1.30745,1.814 -2.1731,2.85272 -3,4c-1.30745,1.814 -3,3 -3,4c0,2 0,4 -1,6c-1,2 -1.23463,3.15225 -2,5c-1.08239,2.61313 -1.58579,3.58578 -3,5c-0.70711,0.70709 -2,2 -2,4c0,3 -0.48626,4.82376 -1,7c-0.22975,0.97324 -1.48626,2.82376 -2,5c-0.22975,0.97324 0,2 0,4c0,1 -0.83982,4.01291 -1,5c-0.50654,3.12143 -2.48626,3.82376 -3,6c-0.22975,0.97324 0.30745,2.186 -1,4c-0.82691,1.14728 -4.18601,0.30746 -6,-1c-1.14727,-0.8269 -2,-1 -3,-1c-1,0 -2.4588,1.69345 -3,3c-0.38268,0.92389 -1,2 -2,3l0,1l0,2l0,1"/>
  <path fill="none" stroke="#000" id="svg_10" d="m486,-2c2,2 2.08398,2.96017 3,5c2.20605,4.91256 4.27432,7.88496 5,10c1.65482,4.82303 2.46552,9.83809 4,15c1.45294,4.88763 3.43863,12.8176 7,22c3.43048,8.84488 6.70819,18.19124 14,29c4.81091,7.13128 12.89349,13.19669 22,18c9.88904,5.21606 21.75305,9.58344 33,14c11.77386,4.62347 23.02332,8.95741 34,15c9.01929,4.96507 16,9 22,13c6,4 10.61102,4.92807 13,7c1.68927,1.46507 4.60645,2.5387 6,5c2.03143,3.58792 2.97253,6.64749 4,11c0.68927,2.91975 1,8 1,13c0,4 0,9 0,13c0,3 0,7 0,11c0,6 -0.49622,9.90779 -1,14c-0.36658,2.97752 -0.53375,7.0966 -2,13c-0.76227,3.06903 -1,6 -1,11c0,3 0.79395,8.08743 3,13c1.83203,4.07967 6.18268,6.60522 13,10c7.21698,3.59381 16.19073,6.42215 20,8c5.38708,2.23141 9.25409,3.35724 15,6c5.29749,2.43649 11,5 16,6c5,1 6.96381,1.11588 10,2c3.95868,1.15277 7,3 9,4c2,1 4.18604,1.69254 6,3c2.29456,1.65381 3.69257,3.186 5,5c0.8269,1.14728 2.71411,4.21167 5,7c0.89661,1.09366 2.48627,3.82376 3,6c0.45953,1.9465 0,3 0,8c0,4 2.49347,8.87857 3,12c0.16016,0.98709 0.52014,3.32367 2,5c2.38617,2.703 3.70544,3.34619 6,5c1.81396,1.30746 4.06598,1.87766 6,3c3.11847,1.80972 5,2 6,2c2,0 5.69342,1.4588 7,2c0.92389,0.38269 1.69342,0.4588 3,1c0.92389,0.38269 3.05164,0.64072 7,0c3.12146,-0.50653 4,-2 6,-2c2,0 3,0 4,0c1,0 3.15222,-0.76538 5,0c1.30658,0.5412 2,1 3,1l1,1l2,-1"/>
  <path fill="none" stroke="#000" id="svg_11" d="m198,230c-1,-2 -1.9176,-3.38687 -3,-6c-0.76537,-1.84776 0,-5 0,-12c0,-5 -2.05334,-11.26801 0,-19c2.06932,-7.79218 9.02602,-13.18799 12,-18c3.32501,-5.37999 4.37134,-10.74675 7,-15c2.35114,-3.80423 5.84796,-11.0797 8,-15c2.80591,-5.11145 6,-7 9,-10c1,-1 2.03609,-1.37822 4,-1c5.28799,1.01837 8.94669,5.10844 17,9c14.90405,7.20201 24.25406,10.35724 30,13c5.29749,2.43651 7.71899,4.31021 11,7c2.78833,2.28587 4,4 6,6c1,1 2.1731,2.85274 3,4c1.30746,1.814 4.08582,2.42043 6,3c3.45084,1.04483 6.34619,3.70546 8,6c2.6149,3.62799 3.48627,8.82375 4,11c0.91901,3.89299 0.71033,9.16264 -1,15c-2.14139,7.30852 -10.57718,17.73657 -14,26c-2.42029,5.84312 -4.33749,12.31001 -6,15c-0.7435,1.203 -2.53491,2.31076 -4,4c-2.07193,2.38896 -3.83868,7.1705 -7,10c-4.77115,4.27039 -9,9 -12,11c-3,2 -5.90778,3.49622 -10,4c-5.95505,0.73309 -12.12631,1.32376 -19,0c-5.28799,-1.01837 -11.54901,-4.60641 -15,-10c-4.82054,-7.53409 -6.3851,-12.37201 -9,-16c-1.65381,-2.29454 -3.42043,-4.08582 -4,-6c-1.04483,-3.45085 -3.71413,-7.21167 -6,-10c-0.89659,-1.09367 -1.29289,-3.29289 -2,-4c-0.70711,-0.70711 -1.82375,-1.48625 -4,-2c-1.9465,-0.4595 -2.69344,-1.4588 -4,-2c-0.92387,-0.38269 -4.15927,-0.61064 -7,-2c-3.23892,-1.58411 -7,-4 -9,-6c-1,-1 -2,-1 -2,-2l0,-1"/>
  <path fill="none" stroke="#000" id="svg_12" d="m429,231c-1,-2 -1.70438,-3.0146 -2,-6c-0.50244,-5.0742 -2.42532,-10.01509 -2,-16c0.50125,-7.05328 4.29303,-15.63869 13,-23c11.27518,-9.53261 22.94095,-11.39388 35,-13c9.96191,-1.32681 19,-1 26,-1c6,0 11.31,-0.66251 14,1c3.60901,2.23048 5.56952,5.133 7,9c1.55157,4.19435 4.39825,15.0874 6,24c1.45862,8.11618 3,18 3,25c0,8 0,17 -1,24c-1,7 -3.49347,13.87857 -4,17c-1.12128,6.90961 -1.49347,9.87857 -2,13c-0.32037,1.97418 -2.44843,4.80566 -4,9c-1.43048,3.867 -3.48529,8.85114 -8,11c-3.7229,1.772 -8,2 -12,2c-4,0 -8.09662,0.46625 -14,-1c-3.06903,-0.76227 -6.10339,-0.90634 -7,-2c-2.28589,-2.78833 -5.37134,-5.74673 -8,-10c-3.5267,-5.70633 -7,-11 -13,-17c-1,-1 -2,-2 -3,-3c-2,-2 -3.52222,-4.38074 -6,-7c-3.43607,-3.63226 -8.22272,-6.724 -12,-10c-1.06836,-0.92661 -3,-3 -3,-4c0,-1 -1,-2 -2,-4c-1,-2 -0.63345,-6.02248 -1,-9c-0.50378,-4.09221 -0.5405,-7.0535 -1,-9c-0.51373,-2.17625 -1.48627,-2.82375 -2,-5c-0.22977,-0.97325 -0.48627,-1.82375 -1,-4c-0.22977,-0.97325 0,-3 0,-4l0,-2l2,-1l2,-1"/>
 </g>

</svg>